<mxfile host="65bd71144e" pages="7" scale="1" border="5" disableSvgWarning="true">
    <diagram id="2vP4aIfQfO2A1SMvVix5" name="bitcoin-application-layer">
        <mxGraphModel dx="803" dy="524" grid="0" gridSize="10" guides="1" tooltips="1" connect="1" arrows="1" fold="1" page="1" pageScale="1" pageWidth="850" pageHeight="1100" background="#ffffff" math="0" shadow="0">
            <root>
                <mxCell id="0"/>
                <mxCell id="1" parent="0"/>
                <mxCell id="2N7_XIKIqpY0DTHlZ09R-25" value="&lt;b style=&quot;font-size: 16px;&quot;&gt;&lt;br&gt;&lt;br&gt;Rooch Network&lt;br&gt;&lt;/b&gt;" style="text;html=1;align=center;verticalAlign=bottom;whiteSpace=wrap;rounded=0;strokeWidth=0.5;fontSize=16;fillColor=#FFFFCC;opacity=60;strokeColor=default;" parent="1" vertex="1">
                    <mxGeometry x="15" y="159" width="807" height="511" as="geometry"/>
                </mxCell>
                <mxCell id="2N7_XIKIqpY0DTHlZ09R-11" value="" style="ellipse;whiteSpace=wrap;html=1;strokeColor=#666666;fontSize=20;strokeWidth=2;fillColor=#FFFFCC;dashed=1;" parent="1" vertex="1">
                    <mxGeometry x="39.35" y="168" width="727.29" height="254" as="geometry"/>
                </mxCell>
                <mxCell id="42tMP7xpwDNbhiCgl0YR-1" value="&amp;nbsp; &amp;nbsp;Bitcoin" style="rounded=0;whiteSpace=wrap;html=1;fontSize=20;fillColor=#FF9900;align=left;fontFamily=Verdana;fontStyle=1;gradientColor=none;strokeColor=#6c8ebf;dashed=1;" parent="1" vertex="1">
                    <mxGeometry x="15" y="59" width="807" height="47" as="geometry"/>
                </mxCell>
                <mxCell id="2N7_XIKIqpY0DTHlZ09R-21" style="edgeStyle=none;html=1;fontSize=7;dashed=1;" parent="1" target="2N7_XIKIqpY0DTHlZ09R-22" edge="1">
                    <mxGeometry relative="1" as="geometry">
                        <mxPoint x="398" y="157" as="sourcePoint"/>
                        <Array as="points"/>
                    </mxGeometry>
                </mxCell>
                <mxCell id="2N7_XIKIqpY0DTHlZ09R-22" value="Rooch&lt;br&gt;StateRoot" style="text;html=1;strokeColor=#3399FF;fillColor=#E1F8F7;align=center;verticalAlign=middle;whiteSpace=wrap;rounded=0;fontSize=10;strokeWidth=0.5;fontColor=#000000;opacity=60;" parent="1" vertex="1">
                    <mxGeometry x="353" y="65.38" width="90" height="34.23" as="geometry"/>
                </mxCell>
                <mxCell id="2N7_XIKIqpY0DTHlZ09R-26" value="" style="shape=flexArrow;endArrow=classic;startArrow=classic;html=1;strokeWidth=1;fontSize=10;width=18;startSize=6.6;fillColor=#ffcd28;strokeColor=#d79b00;gradientColor=none;startWidth=16;" parent="1" edge="1">
                    <mxGeometry width="100" height="100" relative="1" as="geometry">
                        <mxPoint x="632.5" y="160" as="sourcePoint"/>
                        <mxPoint x="632.5" y="106" as="targetPoint"/>
                    </mxGeometry>
                </mxCell>
                <mxCell id="2N7_XIKIqpY0DTHlZ09R-27" value="&lt;b&gt;Asset&lt;br&gt;Flow&lt;/b&gt;" style="edgeLabel;html=1;align=center;verticalAlign=middle;resizable=0;points=[];fontSize=10;labelBackgroundColor=none;" parent="2N7_XIKIqpY0DTHlZ09R-26" vertex="1" connectable="0">
                    <mxGeometry x="0.1154" y="-1" relative="1" as="geometry">
                        <mxPoint x="33" y="3" as="offset"/>
                    </mxGeometry>
                </mxCell>
                <mxCell id="2N7_XIKIqpY0DTHlZ09R-73" value="$" style="edgeLabel;html=1;align=center;verticalAlign=middle;resizable=0;points=[];fontSize=11;fontFamily=Verdana;fontColor=#FFFFFF;labelBackgroundColor=none;" parent="2N7_XIKIqpY0DTHlZ09R-26" vertex="1" connectable="0">
                    <mxGeometry x="0.0266" y="1" relative="1" as="geometry">
                        <mxPoint as="offset"/>
                    </mxGeometry>
                </mxCell>
                <mxCell id="2N7_XIKIqpY0DTHlZ09R-28" value="" style="shape=flexArrow;endArrow=classic;startArrow=classic;html=1;strokeWidth=1;fontSize=10;width=20;startSize=6.63;exitX=0.257;exitY=0.581;exitDx=0;exitDy=0;exitPerimeter=0;fillColor=#ffcd28;labelBackgroundColor=none;gradientColor=none;strokeColor=#d79b00;entryX=0.296;entryY=0.468;entryDx=0;entryDy=0;entryPerimeter=0;" parent="1" edge="1">
                    <mxGeometry width="100" height="100" relative="1" as="geometry">
                        <mxPoint x="222.3989999999999" y="473.8910000000001" as="sourcePoint"/>
                        <mxPoint x="253.87200000000007" y="416.14800000000014" as="targetPoint"/>
                    </mxGeometry>
                </mxCell>
                <mxCell id="2N7_XIKIqpY0DTHlZ09R-29" value="$&lt;br&gt;" style="edgeLabel;html=1;align=center;verticalAlign=middle;resizable=0;points=[];fontSize=10;labelBackgroundColor=none;fontColor=#FFFFFF;" parent="2N7_XIKIqpY0DTHlZ09R-28" vertex="1" connectable="0">
                    <mxGeometry x="0.1154" y="-1" relative="1" as="geometry">
                        <mxPoint as="offset"/>
                    </mxGeometry>
                </mxCell>
                <mxCell id="2N7_XIKIqpY0DTHlZ09R-37" value="" style="shape=flexArrow;endArrow=classic;html=1;strokeWidth=1;fontSize=12;fillColor=#d5e8d4;endWidth=44;endSize=8.92;width=56;gradientColor=#97d077;strokeColor=#82b366;exitX=0.192;exitY=0.999;exitDx=0;exitDy=0;exitPerimeter=0;labelBackgroundColor=none;fontColor=#FFFFFF;verticalAlign=middle;" parent="1" source="42tMP7xpwDNbhiCgl0YR-1" edge="1">
                    <mxGeometry width="50" height="50" relative="1" as="geometry">
                        <mxPoint x="151" y="106" as="sourcePoint"/>
                        <mxPoint x="170" y="160" as="targetPoint"/>
                    </mxGeometry>
                </mxCell>
                <mxCell id="2N7_XIKIqpY0DTHlZ09R-38" value="Security&lt;br&gt;Source" style="edgeLabel;html=1;align=center;verticalAlign=middle;resizable=0;points=[];fontSize=12;labelBackgroundColor=none;fontColor=#000000;" parent="2N7_XIKIqpY0DTHlZ09R-37" vertex="1" connectable="0">
                    <mxGeometry x="-0.2053" y="-5" relative="1" as="geometry">
                        <mxPoint x="8" y="6" as="offset"/>
                    </mxGeometry>
                </mxCell>
                <mxCell id="2N7_XIKIqpY0DTHlZ09R-49" value="Rooch&#10;Node" style="group;strokeColor=none;align=center;container=0;verticalAlign=middle;fontSize=7;labelBackgroundColor=none;fontColor=#FFFFFF;labelBorderColor=none;fillColor=#00CC00;fontStyle=1" parent="1" vertex="1" connectable="0">
                    <mxGeometry x="610" y="262" width="46" height="46.99" as="geometry"/>
                </mxCell>
                <mxCell id="2N7_XIKIqpY0DTHlZ09R-50" value="Rooch&#10;Node" style="group;strokeColor=none;align=center;container=0;verticalAlign=middle;fontSize=7;labelBackgroundColor=none;fontColor=#FFFFFF;labelBorderColor=none;fillColor=#00CC00;fontStyle=1" parent="1" vertex="1" connectable="0">
                    <mxGeometry x="541" y="329" width="46" height="46.99" as="geometry"/>
                </mxCell>
                <mxCell id="2N7_XIKIqpY0DTHlZ09R-51" value="Rooch&#10;Node" style="group;strokeColor=none;align=center;container=0;verticalAlign=middle;fontSize=7;labelBackgroundColor=none;fontColor=#FFFFFF;labelBorderColor=none;fillColor=#00CC00;fontStyle=1" parent="1" vertex="1" connectable="0">
                    <mxGeometry x="524" y="209.01" width="46" height="46.99" as="geometry"/>
                </mxCell>
                <mxCell id="2N7_XIKIqpY0DTHlZ09R-52" value="Rooch&#10;Node" style="group;strokeColor=none;align=center;container=0;verticalAlign=middle;fontSize=7;labelBackgroundColor=none;fontColor=#FFFFFF;labelBorderColor=none;fillColor=#00CC00;fontStyle=1" parent="1" vertex="1" connectable="0">
                    <mxGeometry x="187" y="221" width="46" height="46.99" as="geometry"/>
                </mxCell>
                <mxCell id="2N7_XIKIqpY0DTHlZ09R-55" value="" style="shape=flexArrow;endArrow=classic;startArrow=classic;html=1;strokeWidth=1;fontSize=10;width=20;startSize=6.63;fillColor=#ffcd28;labelBackgroundColor=none;gradientColor=none;strokeColor=#d79b00;" parent="1" edge="1">
                    <mxGeometry width="100" height="100" relative="1" as="geometry">
                        <mxPoint x="552" y="469" as="sourcePoint"/>
                        <mxPoint x="532" y="420" as="targetPoint"/>
                    </mxGeometry>
                </mxCell>
                <mxCell id="2N7_XIKIqpY0DTHlZ09R-56" value="$&lt;br&gt;" style="edgeLabel;html=1;align=center;verticalAlign=middle;resizable=0;points=[];fontSize=10;labelBackgroundColor=none;fontColor=#FFFFFF;" parent="2N7_XIKIqpY0DTHlZ09R-55" vertex="1" connectable="0">
                    <mxGeometry x="0.1154" y="-1" relative="1" as="geometry">
                        <mxPoint as="offset"/>
                    </mxGeometry>
                </mxCell>
                <mxCell id="2N7_XIKIqpY0DTHlZ09R-57" value="Rooch&#10;Node" style="group;strokeColor=none;align=center;container=0;verticalAlign=middle;fontSize=7;labelBackgroundColor=none;fontColor=#FFFFFF;labelBorderColor=none;fillColor=#00CC00;fontStyle=1" parent="1" vertex="1" connectable="0">
                    <mxGeometry x="225" y="317.24" width="46" height="46.99" as="geometry"/>
                </mxCell>
                <mxCell id="2N7_XIKIqpY0DTHlZ09R-59" value="" style="curved=1;endArrow=none;html=1;labelBackgroundColor=none;strokeWidth=1;fontFamily=Verdana;fontSize=12;fontColor=#FFFFFF;fillColor=#FFFFFF;endFill=0;strokeColor=#009900;" parent="1" edge="1">
                    <mxGeometry width="50" height="50" relative="1" as="geometry">
                        <mxPoint x="225" y="319" as="sourcePoint"/>
                        <mxPoint x="208" y="271" as="targetPoint"/>
                        <Array as="points">
                            <mxPoint x="210" y="298"/>
                        </Array>
                    </mxGeometry>
                </mxCell>
                <mxCell id="2N7_XIKIqpY0DTHlZ09R-61" value="" style="curved=1;endArrow=none;html=1;labelBackgroundColor=none;strokeColor=#009900;strokeWidth=1;fontFamily=Verdana;fontSize=12;fontColor=#FFFFFF;fillColor=#FFFFFF;endFill=0;" parent="1" edge="1">
                    <mxGeometry width="50" height="50" relative="1" as="geometry">
                        <mxPoint x="212" y="220" as="sourcePoint"/>
                        <mxPoint x="530" y="213" as="targetPoint"/>
                        <Array as="points">
                            <mxPoint x="256" y="196"/>
                            <mxPoint x="388" y="181"/>
                            <mxPoint x="498" y="196"/>
                        </Array>
                    </mxGeometry>
                </mxCell>
                <mxCell id="2N7_XIKIqpY0DTHlZ09R-74" value="p2p &amp;amp; dstp" style="edgeLabel;html=1;align=center;verticalAlign=middle;resizable=0;points=[];fontSize=11;fontFamily=Verdana;fontColor=#009900;labelBackgroundColor=none;" parent="2N7_XIKIqpY0DTHlZ09R-61" vertex="1" connectable="0">
                    <mxGeometry x="-0.1478" y="2" relative="1" as="geometry">
                        <mxPoint x="1" y="-5" as="offset"/>
                    </mxGeometry>
                </mxCell>
                <mxCell id="2N7_XIKIqpY0DTHlZ09R-63" value="" style="curved=1;endArrow=none;html=1;labelBackgroundColor=none;strokeWidth=1;fontFamily=Verdana;fontSize=12;fontColor=#FFFFFF;fillColor=#FFFFFF;endFill=0;strokeColor=#009900;" parent="1" edge="1">
                    <mxGeometry width="50" height="50" relative="1" as="geometry">
                        <mxPoint x="262" y="362" as="sourcePoint"/>
                        <mxPoint x="538" y="372" as="targetPoint"/>
                        <Array as="points">
                            <mxPoint x="267" y="372"/>
                            <mxPoint x="330" y="395"/>
                            <mxPoint x="387" y="403"/>
                            <mxPoint x="444" y="399"/>
                            <mxPoint x="523" y="377"/>
                        </Array>
                    </mxGeometry>
                </mxCell>
                <mxCell id="2N7_XIKIqpY0DTHlZ09R-65" value="" style="curved=1;endArrow=none;html=1;labelBackgroundColor=none;strokeColor=#009900;strokeWidth=1;fontFamily=Verdana;fontSize=12;fontColor=#FFFFFF;fillColor=#FFFFFF;endFill=0;" parent="1" edge="1">
                    <mxGeometry width="50" height="50" relative="1" as="geometry">
                        <mxPoint x="587" y="346" as="sourcePoint"/>
                        <mxPoint x="635" y="309" as="targetPoint"/>
                        <Array as="points">
                            <mxPoint x="599" y="340"/>
                            <mxPoint x="633" y="316"/>
                        </Array>
                    </mxGeometry>
                </mxCell>
                <mxCell id="2N7_XIKIqpY0DTHlZ09R-66" value="" style="curved=1;endArrow=none;html=1;labelBackgroundColor=none;strokeColor=#009900;strokeWidth=1;fontFamily=Verdana;fontSize=12;fontColor=#FFFFFF;fillColor=#FFFFFF;endFill=0;" parent="1" edge="1">
                    <mxGeometry width="50" height="50" relative="1" as="geometry">
                        <mxPoint x="570" y="232" as="sourcePoint"/>
                        <mxPoint x="627" y="260" as="targetPoint"/>
                        <Array as="points">
                            <mxPoint x="620" y="237"/>
                        </Array>
                    </mxGeometry>
                </mxCell>
                <mxCell id="2N7_XIKIqpY0DTHlZ09R-68" value="" style="curved=1;endArrow=none;html=1;labelBackgroundColor=none;strokeColor=#009900;strokeWidth=1;fontFamily=Verdana;fontSize=12;fontColor=#FFFFFF;fillColor=#FFFFFF;endFill=0;" parent="1" edge="1">
                    <mxGeometry width="50" height="50" relative="1" as="geometry">
                        <mxPoint x="235" y="260" as="sourcePoint"/>
                        <mxPoint x="363" y="296" as="targetPoint"/>
                        <Array as="points">
                            <mxPoint x="261" y="262"/>
                            <mxPoint x="275" y="302"/>
                        </Array>
                    </mxGeometry>
                </mxCell>
                <mxCell id="2N7_XIKIqpY0DTHlZ09R-70" value="" style="curved=1;endArrow=none;html=1;labelBackgroundColor=none;strokeColor=#009900;strokeWidth=1;fontFamily=Verdana;fontSize=12;fontColor=#FFFFFF;fillColor=#FFFFFF;endFill=0;" parent="1" edge="1">
                    <mxGeometry width="50" height="50" relative="1" as="geometry">
                        <mxPoint x="407" y="295" as="sourcePoint"/>
                        <mxPoint x="526" y="236" as="targetPoint"/>
                        <Array as="points">
                            <mxPoint x="522" y="279"/>
                            <mxPoint x="488" y="242"/>
                        </Array>
                    </mxGeometry>
                </mxCell>
                <mxCell id="2N7_XIKIqpY0DTHlZ09R-71" value="" style="curved=1;endArrow=none;html=1;labelBackgroundColor=none;strokeColor=#009900;strokeWidth=1;fontFamily=Verdana;fontSize=12;fontColor=#FFFFFF;fillColor=#FFFFFF;exitX=0.191;exitY=0.043;exitDx=0;exitDy=0;endFill=0;exitPerimeter=0;" parent="1" source="VQFMe5WCVB1cmZSXaplP-1" edge="1">
                    <mxGeometry width="50" height="50" relative="1" as="geometry">
                        <mxPoint x="179" y="473" as="sourcePoint"/>
                        <mxPoint x="224" y="357" as="targetPoint"/>
                        <Array as="points">
                            <mxPoint x="171" y="398"/>
                        </Array>
                    </mxGeometry>
                </mxCell>
                <mxCell id="2N7_XIKIqpY0DTHlZ09R-72" value="" style="curved=1;endArrow=none;html=1;labelBackgroundColor=none;strokeColor=#009900;strokeWidth=1;fontFamily=Verdana;fontSize=12;fontColor=#FFFFFF;fillColor=#FFFFFF;endFill=0;exitX=0.75;exitY=0;exitDx=0;exitDy=0;" parent="1" edge="1">
                    <mxGeometry width="50" height="50" relative="1" as="geometry">
                        <mxPoint x="589.25" y="477" as="sourcePoint"/>
                        <mxPoint x="585" y="368" as="targetPoint"/>
                        <Array as="points">
                            <mxPoint x="638" y="436"/>
                        </Array>
                    </mxGeometry>
                </mxCell>
                <mxCell id="2N7_XIKIqpY0DTHlZ09R-75" value="Smart Wallet" style="points=[[0.35,0,0],[0.98,0.51,0],[1,0.71,0],[0.67,1,0],[0,0.795,0],[0,0.65,0]];verticalLabelPosition=bottom;sketch=0;html=1;verticalAlign=top;aspect=fixed;align=center;pointerEvents=1;shape=mxgraph.cisco19.user;fillColor=#005073;strokeColor=none;dashed=1;labelBackgroundColor=none;labelBorderColor=none;strokeWidth=0;fontFamily=Verdana;fontSize=11;fontColor=#000000;opacity=60;" parent="1" vertex="1">
                    <mxGeometry x="705" y="558.5" width="50" height="50" as="geometry"/>
                </mxCell>
                <mxCell id="2N7_XIKIqpY0DTHlZ09R-76" value="" style="curved=1;endArrow=none;html=1;labelBackgroundColor=none;strokeColor=#009900;strokeWidth=1;fontFamily=Verdana;fontSize=12;fontColor=#FFFFFF;fillColor=#FFFFFF;endFill=0;entryX=0.934;entryY=1.024;entryDx=0;entryDy=0;entryPerimeter=0;" parent="1" target="42tMP7xpwDNbhiCgl0YR-1" edge="1">
                    <mxGeometry width="50" height="50" relative="1" as="geometry">
                        <mxPoint x="724" y="547" as="sourcePoint"/>
                        <mxPoint x="595" y="378" as="targetPoint"/>
                        <Array as="points">
                            <mxPoint x="733" y="529"/>
                            <mxPoint x="743" y="495"/>
                            <mxPoint x="752" y="462"/>
                            <mxPoint x="749" y="410"/>
                            <mxPoint x="803" y="299"/>
                        </Array>
                    </mxGeometry>
                </mxCell>
                <mxCell id="2N7_XIKIqpY0DTHlZ09R-77" value="" style="curved=1;endArrow=none;html=1;labelBackgroundColor=none;strokeColor=#009900;strokeWidth=1;fontFamily=Verdana;fontSize=12;fontColor=#FFFFFF;fillColor=#FFFFFF;endFill=0;" parent="1" edge="1">
                    <mxGeometry width="50" height="50" relative="1" as="geometry">
                        <mxPoint x="706" y="554" as="sourcePoint"/>
                        <mxPoint x="642" y="305" as="targetPoint"/>
                        <Array as="points">
                            <mxPoint x="648" y="446"/>
                        </Array>
                    </mxGeometry>
                </mxCell>
                <mxCell id="2N7_XIKIqpY0DTHlZ09R-78" value="" style="curved=1;endArrow=none;html=1;labelBackgroundColor=none;strokeColor=#009900;strokeWidth=1;fontFamily=Verdana;fontSize=12;fontColor=#FFFFFF;fillColor=#FFFFFF;endFill=0;entryX=0.678;entryY=0.949;entryDx=0;entryDy=0;entryPerimeter=0;" parent="1" target="VQFMe5WCVB1cmZSXaplP-2" edge="1">
                    <mxGeometry width="50" height="50" relative="1" as="geometry">
                        <mxPoint x="697" y="588" as="sourcePoint"/>
                        <mxPoint x="329" y="609.5" as="targetPoint"/>
                        <Array as="points">
                            <mxPoint x="614" y="590"/>
                        </Array>
                    </mxGeometry>
                </mxCell>
                <mxCell id="js07Af591hyCYf0K9vDc-3" value="Rooch&#10;Node" style="group;strokeColor=none;align=center;container=0;verticalAlign=middle;fontSize=7;labelBackgroundColor=none;fontColor=#FFFFFF;labelBorderColor=none;fillColor=#00CC00;fontStyle=1" parent="1" vertex="1" connectable="0">
                    <mxGeometry x="361" y="267.51" width="46" height="46.99" as="geometry"/>
                </mxCell>
                <mxCell id="VQFMe5WCVB1cmZSXaplP-1" value="&lt;font style=&quot;font-size: 11px;&quot;&gt;&lt;b&gt;VApp Node&lt;/b&gt;&lt;/font&gt;" style="ellipse;whiteSpace=wrap;html=1;aspect=fixed;verticalAlign=middle;fontSize=8;movable=1;resizable=1;rotatable=1;deletable=1;editable=1;connectable=1;container=0;fillColor=#DDD6FD;" parent="1" vertex="1">
                    <mxGeometry x="172.5" y="480" width="75" height="75" as="geometry"/>
                </mxCell>
                <mxCell id="VQFMe5WCVB1cmZSXaplP-2" value="&lt;font style=&quot;font-size: 11px;&quot;&gt;&lt;b&gt;VApp Node&lt;/b&gt;&lt;/font&gt;" style="ellipse;whiteSpace=wrap;html=1;aspect=fixed;verticalAlign=middle;fontSize=8;movable=1;resizable=1;rotatable=1;deletable=1;editable=1;connectable=1;container=0;fillColor=#DDD6FD;" parent="1" vertex="1">
                    <mxGeometry x="533" y="473" width="75" height="75" as="geometry"/>
                </mxCell>
                <mxCell id="VQFMe5WCVB1cmZSXaplP-3" value="&lt;font style=&quot;font-size: 11px;&quot;&gt;&lt;b&gt;VApp Node&lt;/b&gt;&lt;/font&gt;" style="ellipse;whiteSpace=wrap;html=1;aspect=fixed;verticalAlign=middle;fontSize=8;movable=1;resizable=1;rotatable=1;deletable=1;editable=1;connectable=1;container=0;fillColor=#DDD6FD;" parent="1" vertex="1">
                    <mxGeometry x="42" y="422" width="75" height="75" as="geometry"/>
                </mxCell>
                <mxCell id="VQFMe5WCVB1cmZSXaplP-4" value="RGB/Ordinals(BRC20,Bitseed,...)" style="rounded=0;whiteSpace=wrap;html=1;labelBackgroundColor=none;labelBorderColor=none;strokeColor=none;strokeWidth=1;fontFamily=Verdana;fontSize=13;fontColor=#000000;fillColor=#FFCD28;gradientColor=none;fontStyle=1;opacity=60;" parent="1" vertex="1">
                    <mxGeometry x="505" y="70" width="257" height="29.61" as="geometry"/>
                </mxCell>
                <mxCell id="VQFMe5WCVB1cmZSXaplP-5" value="" style="curved=1;endArrow=none;html=1;labelBackgroundColor=none;strokeColor=#009900;strokeWidth=1;fontFamily=Verdana;fontSize=12;fontColor=#FFFFFF;fillColor=#FFFFFF;exitX=1;exitY=0;exitDx=0;exitDy=0;endFill=0;" parent="1" source="VQFMe5WCVB1cmZSXaplP-3" edge="1">
                    <mxGeometry width="50" height="50" relative="1" as="geometry">
                        <mxPoint x="196.82500000000005" y="493.2249999999999" as="sourcePoint"/>
                        <mxPoint x="227" y="343" as="targetPoint"/>
                        <Array as="points">
                            <mxPoint x="162" y="371"/>
                        </Array>
                    </mxGeometry>
                </mxCell>
            </root>
        </mxGraphModel>
    </diagram>
    <diagram id="d7akH7xzT9ppM8vzb87T" name="vapp container">
        <mxGraphModel dx="803" dy="524" grid="0" gridSize="10" guides="1" tooltips="1" connect="1" arrows="1" fold="1" page="1" pageScale="1" pageWidth="850" pageHeight="1100" background="#ffffff" math="0" shadow="0">
            <root>
                <mxCell id="0"/>
                <mxCell id="1" parent="0"/>
                <mxCell id="Z9TN9iyGQm03j9Z2ilVb-1" value="VApp Container" style="group;strokeColor=default;align=center;container=0;movable=1;resizable=1;rotatable=1;deletable=1;editable=1;connectable=1;fillColor=#FEFCF0;fontStyle=1" parent="1" vertex="1" connectable="0">
                    <mxGeometry x="173" y="169" width="347" height="262" as="geometry"/>
                </mxCell>
                <mxCell id="Z9TN9iyGQm03j9Z2ilVb-11" value="MoveOS" style="rounded=0;whiteSpace=wrap;html=1;labelBackgroundColor=none;labelBorderColor=none;strokeColor=default;strokeWidth=1;fontFamily=Verdana;fontSize=11;fontColor=#000000;fillColor=#FFFFFF;gradientColor=none;opacity=60;verticalAlign=top;" parent="1" vertex="1">
                    <mxGeometry x="173" y="207" width="347" height="176" as="geometry"/>
                </mxCell>
                <mxCell id="Z9TN9iyGQm03j9Z2ilVb-2" value="&lt;font style=&quot;font-size: 11px;&quot;&gt;&lt;b&gt;App State&lt;/b&gt;&lt;/font&gt;" style="ellipse;whiteSpace=wrap;html=1;aspect=fixed;verticalAlign=top;fontSize=8;movable=1;resizable=1;rotatable=1;deletable=1;editable=1;connectable=1;container=0;fillColor=#DDD6FD;" parent="1" vertex="1">
                    <mxGeometry x="198" y="232.61764705882354" width="140" height="140" as="geometry"/>
                </mxCell>
                <mxCell id="Z9TN9iyGQm03j9Z2ilVb-3" value="&lt;font style=&quot;font-size: 10px;&quot;&gt;Rooch&lt;br&gt;State&lt;/font&gt;" style="ellipse;whiteSpace=wrap;html=1;aspect=fixed;fillColor=#E1F8F7;verticalAlign=top;fontSize=8;movable=1;resizable=1;rotatable=1;deletable=1;editable=1;connectable=1;container=0;dashed=1;fontColor=#000000;" parent="1" vertex="1">
                    <mxGeometry x="211.02" y="263" width="97.55" height="97.55" as="geometry"/>
                </mxCell>
                <mxCell id="Z9TN9iyGQm03j9Z2ilVb-4" value="&lt;span style=&quot;font-size: 8px;&quot;&gt;Bitcoin&lt;br&gt;State&lt;br style=&quot;font-size: 8px;&quot;&gt;&lt;/span&gt;" style="ellipse;whiteSpace=wrap;html=1;aspect=fixed;dashed=1;fontSize=8;movable=1;resizable=1;rotatable=1;deletable=1;editable=1;connectable=1;container=0;fillColor=#ff9900;gradientColor=none;strokeColor=#82b366;fontStyle=0;fontColor=#FFFFFF;" parent="1" vertex="1">
                    <mxGeometry x="234.83" y="301" width="49.93" height="49.93" as="geometry"/>
                </mxCell>
                <mxCell id="Z9TN9iyGQm03j9Z2ilVb-7" value="Move Std" style="rounded=0;whiteSpace=wrap;html=1;labelBackgroundColor=none;labelBorderColor=none;strokeColor=default;strokeWidth=1;fontFamily=Verdana;fontSize=11;fontColor=#000000;fillColor=#FFFFFF;gradientColor=none;flipV=1;flipH=1;" parent="1" vertex="1">
                    <mxGeometry x="355" y="343" width="161" height="32" as="geometry"/>
                </mxCell>
                <mxCell id="Z9TN9iyGQm03j9Z2ilVb-8" value="MoveOS Std" style="rounded=0;whiteSpace=wrap;html=1;labelBackgroundColor=none;labelBorderColor=none;strokeColor=default;strokeWidth=1;fontFamily=Verdana;fontSize=11;fontColor=#000000;fillColor=#FFFFFF;gradientColor=none;flipV=1;flipH=1;" parent="1" vertex="1">
                    <mxGeometry x="355" y="311" width="161" height="32" as="geometry"/>
                </mxCell>
                <mxCell id="Z9TN9iyGQm03j9Z2ilVb-9" value="RoochFramework" style="rounded=0;whiteSpace=wrap;html=1;labelBackgroundColor=none;labelBorderColor=none;strokeColor=default;strokeWidth=1;fontFamily=Verdana;fontSize=11;fontColor=#000000;fillColor=#FFFFFF;gradientColor=none;flipV=1;flipH=1;" parent="1" vertex="1">
                    <mxGeometry x="355" y="279" width="161" height="32" as="geometry"/>
                </mxCell>
                <mxCell id="Z9TN9iyGQm03j9Z2ilVb-10" value="BitcoinMove" style="rounded=0;whiteSpace=wrap;html=1;labelBackgroundColor=none;labelBorderColor=none;strokeColor=default;strokeWidth=1;fontFamily=Verdana;fontSize=11;fontColor=#000000;fillColor=#FFFFFF;gradientColor=none;flipV=1;flipH=1;" parent="1" vertex="1">
                    <mxGeometry x="355" y="247" width="161" height="32" as="geometry"/>
                </mxCell>
                <mxCell id="Z9TN9iyGQm03j9Z2ilVb-13" value="CLI" style="rounded=0;whiteSpace=wrap;html=1;labelBackgroundColor=none;labelBorderColor=none;strokeColor=default;strokeWidth=1;fontFamily=Verdana;fontSize=11;fontColor=#000000;fillColor=#FFFFFF;gradientColor=none;opacity=60;" parent="1" vertex="1">
                    <mxGeometry x="173" y="396" width="117" height="35.62" as="geometry"/>
                </mxCell>
                <mxCell id="Z9TN9iyGQm03j9Z2ilVb-14" value="RPC" style="rounded=0;whiteSpace=wrap;html=1;labelBackgroundColor=none;labelBorderColor=none;strokeColor=default;strokeWidth=1;fontFamily=Verdana;fontSize=11;fontColor=#000000;fillColor=#FFFFFF;gradientColor=none;opacity=60;" parent="1" vertex="1">
                    <mxGeometry x="290" y="396" width="130" height="35.62" as="geometry"/>
                </mxCell>
                <mxCell id="Z9TN9iyGQm03j9Z2ilVb-15" value="Indexer" style="rounded=0;whiteSpace=wrap;html=1;labelBackgroundColor=none;labelBorderColor=none;strokeColor=default;strokeWidth=1;fontFamily=Verdana;fontSize=11;fontColor=#000000;fillColor=#FFFFFF;gradientColor=none;opacity=60;" parent="1" vertex="1">
                    <mxGeometry x="420" y="396" width="100" height="35.62" as="geometry"/>
                </mxCell>
            </root>
        </mxGraphModel>
    </diagram>
    <diagram id="EqAth-7GmEjJqxAMN-ly" name="dstp">
        <mxGraphModel dx="803" dy="524" grid="0" gridSize="10" guides="1" tooltips="1" connect="1" arrows="1" fold="1" page="1" pageScale="1" pageWidth="850" pageHeight="1100" math="0" shadow="0">
            <root>
                <mxCell id="0"/>
                <mxCell id="1" parent="0"/>
                <mxCell id="Sma7fm2Y2_25wwJNQeVA-1" value="Rooch Node" style="group;strokeColor=default;align=center;container=0;movable=1;resizable=1;rotatable=1;deletable=1;editable=1;connectable=1;fillColor=#FEFCF0;fontStyle=1" parent="1" vertex="1" connectable="0">
                    <mxGeometry x="292" y="188" width="203" height="171" as="geometry"/>
                </mxCell>
                <mxCell id="Sma7fm2Y2_25wwJNQeVA-4" value="&lt;font style=&quot;font-size: 10px;&quot;&gt;Rooch&lt;br&gt;State&lt;/font&gt;" style="ellipse;whiteSpace=wrap;html=1;aspect=fixed;fillColor=#E1F8F7;verticalAlign=top;fontSize=8;movable=1;resizable=1;rotatable=1;deletable=1;editable=1;connectable=1;container=0;fontColor=#000000;" parent="1" vertex="1">
                    <mxGeometry x="333.83000000000004" y="217.45999999999998" width="131" height="131" as="geometry"/>
                </mxCell>
                <mxCell id="Sma7fm2Y2_25wwJNQeVA-5" value="&lt;span style=&quot;font-size: 8px;&quot;&gt;Bitcoin&lt;br&gt;State&lt;br style=&quot;font-size: 8px;&quot;&gt;&lt;/span&gt;" style="ellipse;whiteSpace=wrap;html=1;aspect=fixed;dashed=1;fontSize=8;movable=1;resizable=1;rotatable=1;deletable=1;editable=1;connectable=1;container=0;fillColor=#ff9900;gradientColor=none;strokeColor=#82b366;fontStyle=0;fontColor=#FFFFFF;" parent="1" vertex="1">
                    <mxGeometry x="345" y="246" width="60" height="60" as="geometry"/>
                </mxCell>
                <mxCell id="g-V4mNBlNdT8Pj4GGpcs-1" value="X VApp Node" style="group;strokeColor=default;align=center;container=0;movable=1;resizable=1;rotatable=1;deletable=1;editable=1;connectable=1;fillColor=#FEFCF0;fontStyle=1" parent="1" vertex="1" connectable="0">
                    <mxGeometry x="84" y="460" width="209" height="206" as="geometry"/>
                </mxCell>
                <mxCell id="eU7EONqNW5Q-Um91caDr-1" value="&lt;font style=&quot;font-size: 11px;&quot;&gt;&lt;b&gt;X App State&lt;/b&gt;&lt;/font&gt;" style="ellipse;whiteSpace=wrap;html=1;aspect=fixed;verticalAlign=middle;fontSize=8;movable=1;resizable=1;rotatable=1;deletable=1;editable=1;connectable=1;container=0;fillColor=#DDD6FD;" parent="1" vertex="1">
                    <mxGeometry x="102" y="582" width="75" height="75" as="geometry"/>
                </mxCell>
                <mxCell id="eU7EONqNW5Q-Um91caDr-2" value="&lt;font style=&quot;font-size: 10px;&quot;&gt;Rooch&lt;br&gt;State&lt;/font&gt;" style="ellipse;whiteSpace=wrap;html=1;aspect=fixed;fillColor=#E1F8F7;verticalAlign=top;fontSize=8;movable=1;resizable=1;rotatable=1;deletable=1;editable=1;connectable=1;container=0;fontColor=#000000;" parent="1" vertex="1">
                    <mxGeometry x="157" y="486" width="117.55" height="117.55" as="geometry"/>
                </mxCell>
                <mxCell id="eU7EONqNW5Q-Um91caDr-3" value="&lt;span style=&quot;font-size: 8px;&quot;&gt;Bitcoin&lt;br&gt;State&lt;br style=&quot;font-size: 8px;&quot;&gt;&lt;/span&gt;" style="ellipse;whiteSpace=wrap;html=1;aspect=fixed;dashed=1;fontSize=8;movable=1;resizable=1;rotatable=1;deletable=1;editable=1;connectable=1;container=0;fillColor=#ff9900;gradientColor=none;strokeColor=#82b366;fontStyle=0;fontColor=#FFFFFF;" parent="1" vertex="1">
                    <mxGeometry x="219.00000000000006" y="538.04" width="49.93" height="49.93" as="geometry"/>
                </mxCell>
                <mxCell id="eU7EONqNW5Q-Um91caDr-7" style="edgeStyle=none;html=1;exitX=0.75;exitY=0;exitDx=0;exitDy=0;entryX=0.5;entryY=1;entryDx=0;entryDy=0;dashed=1;labelBackgroundColor=none;strokeColor=#000000;strokeWidth=1;fontFamily=Verdana;fontSize=8;fontColor=#000000;startArrow=none;startFill=0;endArrow=classic;endFill=1;fillColor=#FFFFFF;" parent="1" source="eU7EONqNW5Q-Um91caDr-4" target="eU7EONqNW5Q-Um91caDr-6" edge="1">
                    <mxGeometry relative="1" as="geometry"/>
                </mxCell>
                <mxCell id="eU7EONqNW5Q-Um91caDr-4" value="X App StateRoot" style="rounded=0;whiteSpace=wrap;html=1;labelBackgroundColor=none;labelBorderColor=none;strokeColor=default;strokeWidth=1;fontFamily=Verdana;fontSize=8;fontColor=#000000;fillColor=#DDD6FD;gradientColor=none;opacity=60;fontStyle=1" parent="1" vertex="1">
                    <mxGeometry x="166.5" y="538.04" width="44" height="23" as="geometry"/>
                </mxCell>
                <mxCell id="eU7EONqNW5Q-Um91caDr-5" style="edgeStyle=none;html=1;exitX=1;exitY=0;exitDx=0;exitDy=0;entryX=0.5;entryY=1;entryDx=0;entryDy=0;labelBackgroundColor=none;strokeColor=#000000;strokeWidth=1;fontFamily=Verdana;fontSize=8;fontColor=#000000;startArrow=none;startFill=0;endArrow=classic;endFill=1;fillColor=#FFFFFF;dashed=1;" parent="1" source="eU7EONqNW5Q-Um91caDr-1" target="eU7EONqNW5Q-Um91caDr-4" edge="1">
                    <mxGeometry relative="1" as="geometry"/>
                </mxCell>
                <mxCell id="eU7EONqNW5Q-Um91caDr-6" value="X App StateRoot" style="rounded=0;whiteSpace=wrap;html=1;labelBackgroundColor=none;labelBorderColor=none;strokeColor=default;strokeWidth=1;fontFamily=Verdana;fontSize=8;fontColor=#000000;fillColor=#DDD6FD;gradientColor=none;opacity=60;fontStyle=1" parent="1" vertex="1">
                    <mxGeometry x="371.5" y="316.99999999999994" width="44" height="23" as="geometry"/>
                </mxCell>
                <mxCell id="eU7EONqNW5Q-Um91caDr-8" value="Y App StateRoot" style="rounded=0;whiteSpace=wrap;html=1;labelBackgroundColor=none;labelBorderColor=none;strokeColor=default;strokeWidth=1;fontFamily=Verdana;fontSize=8;fontColor=#000000;fillColor=#99FFFF;gradientColor=none;opacity=60;fontStyle=1" parent="1" vertex="1">
                    <mxGeometry x="410" y="277.99999999999994" width="44" height="23" as="geometry"/>
                </mxCell>
                <mxCell id="eU7EONqNW5Q-Um91caDr-10" value="Y VApp Node" style="group;strokeColor=default;align=center;container=0;movable=1;resizable=1;rotatable=1;deletable=1;editable=1;connectable=1;fillColor=#FEFCF0;fontStyle=1" parent="1" vertex="1" connectable="0">
                    <mxGeometry x="422" y="459" width="209" height="206" as="geometry"/>
                </mxCell>
                <mxCell id="eU7EONqNW5Q-Um91caDr-11" value="&lt;font style=&quot;font-size: 11px;&quot;&gt;&lt;b&gt;Y App State&lt;/b&gt;&lt;/font&gt;" style="ellipse;whiteSpace=wrap;html=1;aspect=fixed;verticalAlign=middle;fontSize=8;movable=1;resizable=1;rotatable=1;deletable=1;editable=1;connectable=1;container=0;fillColor=#99FFFF;" parent="1" vertex="1">
                    <mxGeometry x="440" y="581" width="75" height="75" as="geometry"/>
                </mxCell>
                <mxCell id="eU7EONqNW5Q-Um91caDr-12" value="&lt;font style=&quot;font-size: 10px;&quot;&gt;Rooch&lt;br&gt;State&lt;/font&gt;" style="ellipse;whiteSpace=wrap;html=1;aspect=fixed;fillColor=#E1F8F7;verticalAlign=top;fontSize=8;movable=1;resizable=1;rotatable=1;deletable=1;editable=1;connectable=1;container=0;fontColor=#000000;" parent="1" vertex="1">
                    <mxGeometry x="495" y="485" width="117.55" height="117.55" as="geometry"/>
                </mxCell>
                <mxCell id="eU7EONqNW5Q-Um91caDr-13" value="&lt;span style=&quot;font-size: 8px;&quot;&gt;Bitcoin&lt;br&gt;State&lt;br style=&quot;font-size: 8px;&quot;&gt;&lt;/span&gt;" style="ellipse;whiteSpace=wrap;html=1;aspect=fixed;dashed=1;fontSize=8;movable=1;resizable=1;rotatable=1;deletable=1;editable=1;connectable=1;container=0;fillColor=#ff9900;gradientColor=none;strokeColor=#82b366;fontStyle=0;fontColor=#FFFFFF;" parent="1" vertex="1">
                    <mxGeometry x="557" y="537.04" width="49.93" height="49.93" as="geometry"/>
                </mxCell>
                <mxCell id="eU7EONqNW5Q-Um91caDr-16" style="edgeStyle=none;html=1;exitX=0.25;exitY=0;exitDx=0;exitDy=0;entryX=0.75;entryY=1;entryDx=0;entryDy=0;dashed=1;labelBackgroundColor=none;strokeColor=#000000;strokeWidth=1;fontFamily=Verdana;fontSize=8;fontColor=#000000;startArrow=none;startFill=0;endArrow=classic;endFill=1;fillColor=#FFFFFF;" parent="1" source="eU7EONqNW5Q-Um91caDr-14" target="eU7EONqNW5Q-Um91caDr-8" edge="1">
                    <mxGeometry relative="1" as="geometry"/>
                </mxCell>
                <mxCell id="eU7EONqNW5Q-Um91caDr-14" value="Y App StateRoot" style="rounded=0;whiteSpace=wrap;html=1;labelBackgroundColor=none;labelBorderColor=none;strokeColor=default;strokeWidth=1;fontFamily=Verdana;fontSize=8;fontColor=#000000;fillColor=#99FFFF;gradientColor=none;opacity=60;fontStyle=1" parent="1" vertex="1">
                    <mxGeometry x="504.5" y="537.04" width="44" height="23" as="geometry"/>
                </mxCell>
                <mxCell id="eU7EONqNW5Q-Um91caDr-15" style="edgeStyle=none;html=1;exitX=1;exitY=0;exitDx=0;exitDy=0;entryX=0.5;entryY=1;entryDx=0;entryDy=0;labelBackgroundColor=none;strokeColor=#000000;strokeWidth=1;fontFamily=Verdana;fontSize=8;fontColor=#000000;startArrow=none;startFill=0;endArrow=classic;endFill=1;fillColor=#FFFFFF;dashed=1;" parent="1" source="eU7EONqNW5Q-Um91caDr-11" target="eU7EONqNW5Q-Um91caDr-14" edge="1">
                    <mxGeometry relative="1" as="geometry"/>
                </mxCell>
                <mxCell id="4hSwtZB1Eyv5E-aTp5YB-1" value="&amp;nbsp; &amp;nbsp;Bitcoin" style="rounded=0;whiteSpace=wrap;html=1;fontSize=20;fillColor=#FF9900;align=left;fontFamily=Verdana;fontStyle=1;gradientColor=none;strokeColor=#6c8ebf;dashed=1;" parent="1" vertex="1">
                    <mxGeometry x="40" y="54" width="780" height="49" as="geometry"/>
                </mxCell>
                <mxCell id="THOBEA_jaRznXiz7DdEh-1" value="Rooch StateRoot" style="text;html=1;strokeColor=#3399FF;fillColor=#E1F8F7;align=center;verticalAlign=middle;whiteSpace=wrap;rounded=0;fontSize=10;strokeWidth=0.5;fontColor=#000000;opacity=60;" parent="1" vertex="1">
                    <mxGeometry x="354.33" y="61.379999999999995" width="90" height="34.23" as="geometry"/>
                </mxCell>
                <mxCell id="THOBEA_jaRznXiz7DdEh-2" style="edgeStyle=none;html=1;exitX=0.5;exitY=0;exitDx=0;exitDy=0;entryX=0.5;entryY=1;entryDx=0;entryDy=0;dashed=1;labelBackgroundColor=none;strokeColor=#000000;strokeWidth=1;fontFamily=Verdana;fontSize=8;fontColor=#000000;startArrow=none;startFill=0;endArrow=classic;endFill=1;fillColor=#FFFFFF;" parent="1" source="Sma7fm2Y2_25wwJNQeVA-4" target="THOBEA_jaRznXiz7DdEh-1" edge="1">
                    <mxGeometry relative="1" as="geometry"/>
                </mxCell>
                <mxCell id="THOBEA_jaRznXiz7DdEh-3" value="Rooch Node" style="group;strokeColor=default;align=center;container=0;movable=1;resizable=1;rotatable=1;deletable=1;editable=1;connectable=1;fillColor=#FEFCF0;fontStyle=1" parent="1" vertex="1" connectable="0">
                    <mxGeometry x="48.72" y="283" width="97.28" height="72" as="geometry"/>
                </mxCell>
                <mxCell id="THOBEA_jaRznXiz7DdEh-4" value="Smart Wallet" style="group;strokeColor=default;align=center;container=0;movable=1;resizable=1;rotatable=1;deletable=1;editable=1;connectable=1;fillColor=#FEFCF0;fontStyle=1" parent="1" vertex="1" connectable="0">
                    <mxGeometry x="701" y="283" width="118" height="119" as="geometry"/>
                </mxCell>
                <mxCell id="4EUn-eC5sLoJOuotqmGa-1" value="" style="curved=1;endArrow=none;html=1;labelBackgroundColor=none;strokeColor=#009900;strokeWidth=2;fontFamily=Verdana;fontSize=12;fontColor=#FFFFFF;fillColor=#FFFFFF;exitX=1;exitY=0.5;exitDx=0;exitDy=0;endFill=0;entryX=0;entryY=0.5;entryDx=0;entryDy=0;" parent="1" source="THOBEA_jaRznXiz7DdEh-3" target="Sma7fm2Y2_25wwJNQeVA-1" edge="1">
                    <mxGeometry width="50" height="50" relative="1" as="geometry">
                        <mxPoint x="179" y="473" as="sourcePoint"/>
                        <mxPoint x="224" y="357" as="targetPoint"/>
                        <Array as="points">
                            <mxPoint x="228" y="243"/>
                        </Array>
                    </mxGeometry>
                </mxCell>
                <mxCell id="T6NRajAya--mGivz9IYg-3" value="p2p" style="edgeLabel;html=1;align=center;verticalAlign=middle;resizable=0;points=[];fontSize=8;fontFamily=Verdana;fontColor=#009900;" parent="4EUn-eC5sLoJOuotqmGa-1" vertex="1" connectable="0">
                    <mxGeometry x="-0.1221" y="-10" relative="1" as="geometry">
                        <mxPoint as="offset"/>
                    </mxGeometry>
                </mxCell>
                <mxCell id="4EUn-eC5sLoJOuotqmGa-2" value="" style="curved=1;endArrow=none;html=1;labelBackgroundColor=none;strokeColor=#009900;strokeWidth=2;fontFamily=Verdana;fontSize=12;fontColor=#FFFFFF;fillColor=#FFFFFF;exitX=0.5;exitY=0;exitDx=0;exitDy=0;endFill=0;entryX=0;entryY=0.75;entryDx=0;entryDy=0;" parent="1" source="g-V4mNBlNdT8Pj4GGpcs-1" target="Sma7fm2Y2_25wwJNQeVA-1" edge="1">
                    <mxGeometry width="50" height="50" relative="1" as="geometry">
                        <mxPoint x="156" y="329" as="sourcePoint"/>
                        <mxPoint x="302" y="283.5" as="targetPoint"/>
                        <Array as="points">
                            <mxPoint x="238" y="253"/>
                        </Array>
                    </mxGeometry>
                </mxCell>
                <mxCell id="T6NRajAya--mGivz9IYg-2" value="p2p" style="edgeLabel;html=1;align=center;verticalAlign=middle;resizable=0;points=[];fontSize=8;fontFamily=Verdana;fontColor=#009900;" parent="4EUn-eC5sLoJOuotqmGa-2" vertex="1" connectable="0">
                    <mxGeometry x="-0.3528" y="-5" relative="1" as="geometry">
                        <mxPoint as="offset"/>
                    </mxGeometry>
                </mxCell>
                <mxCell id="4EUn-eC5sLoJOuotqmGa-3" value="" style="curved=1;endArrow=none;html=1;labelBackgroundColor=none;strokeColor=#009900;strokeWidth=2;fontFamily=Verdana;fontSize=12;fontColor=#FFFFFF;fillColor=#FFFFFF;exitX=0.25;exitY=0;exitDx=0;exitDy=0;endFill=0;entryX=0.64;entryY=0.996;entryDx=0;entryDy=0;entryPerimeter=0;" parent="1" source="eU7EONqNW5Q-Um91caDr-10" target="Sma7fm2Y2_25wwJNQeVA-1" edge="1">
                    <mxGeometry width="50" height="50" relative="1" as="geometry">
                        <mxPoint x="198.5" y="470" as="sourcePoint"/>
                        <mxPoint x="302" y="326.25" as="targetPoint"/>
                        <Array as="points">
                            <mxPoint x="437" y="403"/>
                        </Array>
                    </mxGeometry>
                </mxCell>
                <mxCell id="WeZUjNYPHnncX8DezLcJ-2" value="p2p" style="edgeLabel;html=1;align=center;verticalAlign=middle;resizable=0;points=[];fontSize=8;fontFamily=Verdana;fontColor=#009900;" parent="4EUn-eC5sLoJOuotqmGa-3" vertex="1" connectable="0">
                    <mxGeometry x="-0.0797" y="-3" relative="1" as="geometry">
                        <mxPoint as="offset"/>
                    </mxGeometry>
                </mxCell>
                <mxCell id="4EUn-eC5sLoJOuotqmGa-4" value="" style="curved=1;endArrow=none;html=1;labelBackgroundColor=none;strokeColor=#009900;strokeWidth=2;fontFamily=Verdana;fontSize=12;fontColor=#FFFFFF;fillColor=#FFFFFF;exitX=0;exitY=0.5;exitDx=0;exitDy=0;endFill=0;entryX=1;entryY=0.5;entryDx=0;entryDy=0;" parent="1" source="eU7EONqNW5Q-Um91caDr-10" target="g-V4mNBlNdT8Pj4GGpcs-1" edge="1">
                    <mxGeometry width="50" height="50" relative="1" as="geometry">
                        <mxPoint x="484.25" y="469" as="sourcePoint"/>
                        <mxPoint x="431.9200000000001" y="368.31600000000003" as="targetPoint"/>
                        <Array as="points">
                            <mxPoint x="397" y="582"/>
                            <mxPoint x="361" y="598"/>
                            <mxPoint x="333" y="569"/>
                        </Array>
                    </mxGeometry>
                </mxCell>
                <mxCell id="WeZUjNYPHnncX8DezLcJ-1" value="p2p" style="edgeLabel;html=1;align=center;verticalAlign=middle;resizable=0;points=[];fontSize=8;fontFamily=Verdana;fontColor=#009900;" parent="4EUn-eC5sLoJOuotqmGa-4" vertex="1" connectable="0">
                    <mxGeometry x="-0.2323" y="-3" relative="1" as="geometry">
                        <mxPoint y="1" as="offset"/>
                    </mxGeometry>
                </mxCell>
                <mxCell id="4EUn-eC5sLoJOuotqmGa-5" value="" style="curved=1;endArrow=none;html=1;labelBackgroundColor=none;strokeColor=#009900;strokeWidth=2;fontFamily=Verdana;fontSize=12;fontColor=#FFFFFF;fillColor=#FFFFFF;exitX=0.5;exitY=1;exitDx=0;exitDy=0;endFill=0;" parent="1" source="THOBEA_jaRznXiz7DdEh-4" edge="1">
                    <mxGeometry width="50" height="50" relative="1" as="geometry">
                        <mxPoint x="432" y="572" as="sourcePoint"/>
                        <mxPoint x="633" y="584" as="targetPoint"/>
                        <Array as="points">
                            <mxPoint x="722" y="411"/>
                            <mxPoint x="709" y="460"/>
                            <mxPoint x="673" y="539"/>
                        </Array>
                    </mxGeometry>
                </mxCell>
                <mxCell id="2N2_772IDQB5AiRyN8ZL-2" value="p2p" style="edgeLabel;html=1;align=center;verticalAlign=middle;resizable=0;points=[];fontSize=8;fontFamily=Verdana;fontColor=#009900;" parent="4EUn-eC5sLoJOuotqmGa-5" vertex="1" connectable="0">
                    <mxGeometry x="0.0209" y="-2" relative="1" as="geometry">
                        <mxPoint as="offset"/>
                    </mxGeometry>
                </mxCell>
                <mxCell id="4EUn-eC5sLoJOuotqmGa-6" value="" style="curved=1;endArrow=none;html=1;labelBackgroundColor=none;strokeColor=#009900;strokeWidth=2;fontFamily=Verdana;fontSize=12;fontColor=#FFFFFF;fillColor=#FFFFFF;exitX=0;exitY=0.5;exitDx=0;exitDy=0;endFill=0;entryX=0.994;entryY=0.557;entryDx=0;entryDy=0;entryPerimeter=0;" parent="1" source="THOBEA_jaRznXiz7DdEh-4" target="Sma7fm2Y2_25wwJNQeVA-1" edge="1">
                    <mxGeometry width="50" height="50" relative="1" as="geometry">
                        <mxPoint x="765.6400000000001" y="365" as="sourcePoint"/>
                        <mxPoint x="643" y="594" as="targetPoint"/>
                        <Array as="points">
                            <mxPoint x="656" y="316"/>
                        </Array>
                    </mxGeometry>
                </mxCell>
                <mxCell id="2N2_772IDQB5AiRyN8ZL-3" value="p2p" style="edgeLabel;html=1;align=center;verticalAlign=middle;resizable=0;points=[];fontSize=8;fontFamily=Verdana;fontColor=#009900;" parent="4EUn-eC5sLoJOuotqmGa-6" vertex="1" connectable="0">
                    <mxGeometry x="0.1346" y="-1" relative="1" as="geometry">
                        <mxPoint as="offset"/>
                    </mxGeometry>
                </mxCell>
                <mxCell id="2N2_772IDQB5AiRyN8ZL-1" value="&lt;b style=&quot;border-color: var(--border-color); color: rgb(0, 0, 0); font-family: Helvetica; font-size: 16px; font-style: normal; font-variant-ligatures: normal; font-variant-caps: normal; letter-spacing: normal; orphans: 2; text-align: center; text-indent: 0px; text-transform: none; widows: 2; word-spacing: 0px; -webkit-text-stroke-width: 0px; background-color: rgb(251, 251, 251); text-decoration-thickness: initial; text-decoration-style: initial; text-decoration-color: initial;&quot;&gt;Distributed State Tree Protocol(DSTP)&lt;br style=&quot;border-color: var(--border-color);&quot;&gt;&lt;/b&gt;" style="text;whiteSpace=wrap;html=1;fontSize=8;fontFamily=Verdana;fontColor=#000000;verticalAlign=middle;" parent="1" vertex="1">
                    <mxGeometry x="226" y="689" width="308" height="56" as="geometry"/>
                </mxCell>
                <mxCell id="T6NRajAya--mGivz9IYg-1" value="" style="points=[[0.35,0,0],[0.98,0.51,0],[1,0.71,0],[0.67,1,0],[0,0.795,0],[0,0.65,0]];verticalLabelPosition=bottom;sketch=0;html=1;verticalAlign=top;aspect=fixed;align=center;pointerEvents=1;shape=mxgraph.cisco19.user;fillColor=#005073;strokeColor=none;dashed=1;labelBackgroundColor=none;labelBorderColor=none;strokeWidth=0;fontFamily=Verdana;fontSize=11;fontColor=#000000;opacity=60;" parent="1" vertex="1">
                    <mxGeometry x="768" y="326" width="48" height="48" as="geometry"/>
                </mxCell>
                <mxCell id="T6NRajAya--mGivz9IYg-4" value="Rooch StateRoot" style="text;html=1;strokeColor=#3399FF;fillColor=#E1F8F7;align=center;verticalAlign=middle;whiteSpace=wrap;rounded=0;fontSize=10;strokeWidth=0.5;fontColor=#000000;" parent="1" vertex="1">
                    <mxGeometry x="708" y="308.77" width="51" height="27.23" as="geometry"/>
                </mxCell>
                <mxCell id="T6NRajAya--mGivz9IYg-5" value="" style="curved=1;endArrow=none;html=1;labelBackgroundColor=none;strokeColor=#009900;strokeWidth=2;fontFamily=Verdana;fontSize=12;fontColor=#FFFFFF;fillColor=#FFFFFF;exitX=0.445;exitY=-0.01;exitDx=0;exitDy=0;endFill=0;entryX=0.663;entryY=1.021;entryDx=0;entryDy=0;entryPerimeter=0;exitPerimeter=0;" parent="1" source="THOBEA_jaRznXiz7DdEh-4" target="4hSwtZB1Eyv5E-aTp5YB-1" edge="1">
                    <mxGeometry width="50" height="50" relative="1" as="geometry">
                        <mxPoint x="717" y="340.5" as="sourcePoint"/>
                        <mxPoint x="503.7819999999999" y="293.24700000000007" as="targetPoint"/>
                        <Array as="points">
                            <mxPoint x="736" y="233"/>
                            <mxPoint x="691" y="197"/>
                            <mxPoint x="641" y="173"/>
                        </Array>
                    </mxGeometry>
                </mxCell>
                <mxCell id="T6NRajAya--mGivz9IYg-6" value="p2p" style="edgeLabel;html=1;align=center;verticalAlign=middle;resizable=0;points=[];fontSize=8;fontFamily=Verdana;fontColor=#009900;" parent="T6NRajAya--mGivz9IYg-5" vertex="1" connectable="0">
                    <mxGeometry x="0.1346" y="-1" relative="1" as="geometry">
                        <mxPoint as="offset"/>
                    </mxGeometry>
                </mxCell>
                <mxCell id="T6NRajAya--mGivz9IYg-7" value="Rooch LightClient" style="text;html=1;strokeColor=#3399FF;fillColor=#E1F8F7;align=center;verticalAlign=middle;whiteSpace=wrap;rounded=0;fontSize=10;strokeWidth=0.5;fontColor=#000000;" parent="1" vertex="1">
                    <mxGeometry x="708" y="340" width="51" height="27.23" as="geometry"/>
                </mxCell>
                <mxCell id="T6NRajAya--mGivz9IYg-8" value="Bitcoin LightClient" style="text;html=1;strokeColor=#3399FF;fillColor=#E1F8F7;align=center;verticalAlign=middle;whiteSpace=wrap;rounded=0;fontSize=10;strokeWidth=0.5;fontColor=#000000;" parent="1" vertex="1">
                    <mxGeometry x="708" y="371" width="51" height="27.23" as="geometry"/>
                </mxCell>
            </root>
        </mxGraphModel>
    </diagram>
    <diagram id="WME22fMKmPQNWC1S9_f8" name="tcp and ordinals">
        <mxGraphModel dx="2463" dy="1537" grid="0" gridSize="10" guides="1" tooltips="1" connect="1" arrows="1" fold="1" page="1" pageScale="1" pageWidth="850" pageHeight="1100" background="#ffffff" math="0" shadow="0">
            <root>
                <mxCell id="0"/>
                <mxCell id="1" parent="0"/>
                <mxCell id="d_WjqqtK40UnCSDloDGY-3" value="TCP Header" style="rounded=0;whiteSpace=wrap;html=1;labelBackgroundColor=none;labelBorderColor=none;strokeColor=default;strokeWidth=1;fontFamily=Verdana;fontSize=11;fontColor=#000000;fillColor=#FFFFFF;gradientColor=none;flipV=1;flipH=1;" vertex="1" parent="1">
                    <mxGeometry x="100" y="356" width="100" height="30" as="geometry"/>
                </mxCell>
                <mxCell id="d_WjqqtK40UnCSDloDGY-4" value="Data" style="rounded=0;whiteSpace=wrap;html=1;labelBackgroundColor=none;labelBorderColor=none;strokeColor=default;strokeWidth=1;fontFamily=Verdana;fontSize=11;fontColor=#000000;fillColor=#FFFFFF;gradientColor=none;flipV=1;flipH=1;" vertex="1" parent="1">
                    <mxGeometry x="200" y="356" width="200" height="30" as="geometry"/>
                </mxCell>
                <mxCell id="d_WjqqtK40UnCSDloDGY-5" value="HTTP Header" style="rounded=0;whiteSpace=wrap;html=1;labelBackgroundColor=none;labelBorderColor=none;strokeColor=default;strokeWidth=1;fontFamily=Verdana;fontSize=11;fontColor=#000000;fillColor=#FFFFFF;gradientColor=none;flipV=1;flipH=1;" vertex="1" parent="1">
                    <mxGeometry x="200" y="326" width="100" height="30" as="geometry"/>
                </mxCell>
                <mxCell id="d_WjqqtK40UnCSDloDGY-6" value="HTTP Body" style="rounded=0;whiteSpace=wrap;html=1;labelBackgroundColor=none;labelBorderColor=none;strokeColor=default;strokeWidth=1;fontFamily=Verdana;fontSize=11;fontColor=#000000;fillColor=#FFFFFF;gradientColor=none;flipV=1;flipH=1;" vertex="1" parent="1">
                    <mxGeometry x="300" y="326" width="100" height="30" as="geometry"/>
                </mxCell>
                <mxCell id="d_WjqqtK40UnCSDloDGY-7" value="JSON RPC&amp;nbsp;&lt;br&gt;method&amp;amp;param" style="rounded=0;whiteSpace=wrap;html=1;labelBackgroundColor=none;labelBorderColor=none;strokeColor=default;strokeWidth=1;fontFamily=Verdana;fontSize=11;fontColor=#000000;fillColor=#FFFFFF;gradientColor=none;flipV=1;flipH=1;" vertex="1" parent="1">
                    <mxGeometry x="300" y="296" width="100" height="30" as="geometry"/>
                </mxCell>
                <mxCell id="d_WjqqtK40UnCSDloDGY-8" value="Content-Type:application/json method: POST" style="rounded=0;whiteSpace=wrap;html=1;labelBackgroundColor=none;labelBorderColor=none;strokeColor=default;strokeWidth=1;fontFamily=Verdana;fontSize=6;fontColor=#000000;fillColor=#FFFFFF;gradientColor=none;flipV=1;flipH=1;align=left;" vertex="1" parent="1">
                    <mxGeometry x="200" y="296" width="100" height="30" as="geometry"/>
                </mxCell>
                <mxCell id="d_WjqqtK40UnCSDloDGY-9" value="Application" style="rounded=0;whiteSpace=wrap;html=1;labelBackgroundColor=none;labelBorderColor=none;strokeColor=default;strokeWidth=1;fontFamily=Verdana;fontSize=11;fontColor=#000000;fillColor=#FFFFFF;gradientColor=none;flipV=1;flipH=1;" vertex="1" parent="1">
                    <mxGeometry x="300" y="266" width="100" height="30" as="geometry"/>
                </mxCell>
                <mxCell id="d_WjqqtK40UnCSDloDGY-10" value="Owner" style="rounded=0;whiteSpace=wrap;html=1;labelBackgroundColor=none;labelBorderColor=none;strokeColor=default;strokeWidth=1;fontFamily=Verdana;fontSize=11;fontColor=#000000;fillColor=#FFFFFF;gradientColor=none;flipV=1;flipH=1;" vertex="1" parent="1">
                    <mxGeometry x="120" y="170" width="100" height="30" as="geometry"/>
                </mxCell>
                <mxCell id="d_WjqqtK40UnCSDloDGY-51" style="edgeStyle=none;html=1;exitX=1;exitY=0.5;exitDx=0;exitDy=0;entryX=0;entryY=0.5;entryDx=0;entryDy=0;fontSize=11;startArrow=classic;startFill=1;endArrow=none;endFill=0;" edge="1" parent="1" source="d_WjqqtK40UnCSDloDGY-11" target="d_WjqqtK40UnCSDloDGY-46">
                    <mxGeometry relative="1" as="geometry"/>
                </mxCell>
                <mxCell id="d_WjqqtK40UnCSDloDGY-11" value="Metadata/Content" style="rounded=0;whiteSpace=wrap;html=1;labelBackgroundColor=none;labelBorderColor=none;strokeColor=default;strokeWidth=1;fontFamily=Verdana;fontSize=11;fontColor=#000000;fillColor=#FFFFFF;gradientColor=none;flipV=1;flipH=1;" vertex="1" parent="1">
                    <mxGeometry x="220" y="170" width="300" height="30" as="geometry"/>
                </mxCell>
                <mxCell id="d_WjqqtK40UnCSDloDGY-53" style="edgeStyle=none;html=1;exitX=1;exitY=0.5;exitDx=0;exitDy=0;entryX=0;entryY=0.5;entryDx=0;entryDy=0;fontSize=11;startArrow=classic;startFill=1;endArrow=none;endFill=0;" edge="1" parent="1" source="d_WjqqtK40UnCSDloDGY-14" target="d_WjqqtK40UnCSDloDGY-48">
                    <mxGeometry relative="1" as="geometry"/>
                </mxCell>
                <mxCell id="d_WjqqtK40UnCSDloDGY-14" value="Validate&amp;nbsp;strategy" style="rounded=0;whiteSpace=wrap;html=1;labelBackgroundColor=none;labelBorderColor=none;strokeColor=default;strokeWidth=1;fontFamily=Verdana;fontSize=11;fontColor=#000000;fillColor=#FFFFFF;gradientColor=none;flipV=1;flipH=1;" vertex="1" parent="1">
                    <mxGeometry x="420" y="110" width="100" height="30" as="geometry"/>
                </mxCell>
                <mxCell id="d_WjqqtK40UnCSDloDGY-15" value="Assert Name" style="rounded=0;whiteSpace=wrap;html=1;labelBackgroundColor=none;labelBorderColor=none;strokeColor=default;strokeWidth=1;fontFamily=Verdana;fontSize=11;fontColor=#000000;fillColor=#FFFFFF;gradientColor=none;flipV=1;flipH=1;align=center;" vertex="1" parent="1">
                    <mxGeometry x="320" y="110" width="100" height="30" as="geometry"/>
                </mxCell>
                <mxCell id="d_WjqqtK40UnCSDloDGY-54" style="edgeStyle=none;html=1;exitX=1;exitY=0.5;exitDx=0;exitDy=0;entryX=0;entryY=0.5;entryDx=0;entryDy=0;fontSize=11;startArrow=classic;startFill=1;endArrow=none;endFill=0;" edge="1" parent="1" source="d_WjqqtK40UnCSDloDGY-16" target="d_WjqqtK40UnCSDloDGY-49">
                    <mxGeometry relative="1" as="geometry"/>
                </mxCell>
                <mxCell id="d_WjqqtK40UnCSDloDGY-16" value="Application" style="rounded=0;whiteSpace=wrap;html=1;labelBackgroundColor=none;labelBorderColor=none;strokeColor=default;strokeWidth=1;fontFamily=Verdana;fontSize=11;fontColor=#000000;fillColor=#FFFFFF;gradientColor=none;flipV=1;flipH=1;" vertex="1" parent="1">
                    <mxGeometry x="420" y="80" width="100" height="30" as="geometry"/>
                </mxCell>
                <mxCell id="d_WjqqtK40UnCSDloDGY-17" value="Metadata" style="rounded=0;whiteSpace=wrap;html=1;labelBackgroundColor=none;labelBorderColor=none;strokeColor=default;strokeWidth=1;fontFamily=Verdana;fontSize=11;fontColor=#000000;fillColor=#FFFFFF;gradientColor=none;flipV=1;flipH=1;" vertex="1" parent="1">
                    <mxGeometry x="279" y="529" width="100" height="30" as="geometry"/>
                </mxCell>
                <mxCell id="d_WjqqtK40UnCSDloDGY-19" value="Content" style="rounded=0;whiteSpace=wrap;html=1;labelBackgroundColor=none;labelBorderColor=none;strokeColor=default;strokeWidth=1;fontFamily=Verdana;fontSize=11;fontColor=#000000;fillColor=#FFFFFF;gradientColor=none;flipV=1;flipH=1;" vertex="1" parent="1">
                    <mxGeometry x="379" y="499" width="100" height="30" as="geometry"/>
                </mxCell>
                <mxCell id="d_WjqqtK40UnCSDloDGY-36" style="edgeStyle=none;html=1;exitX=1;exitY=0.5;exitDx=0;exitDy=0;entryX=0;entryY=0.5;entryDx=0;entryDy=0;fontSize=11;startArrow=classic;startFill=1;endArrow=none;endFill=0;" edge="1" parent="1" source="d_WjqqtK40UnCSDloDGY-21" target="d_WjqqtK40UnCSDloDGY-33">
                    <mxGeometry relative="1" as="geometry"/>
                </mxCell>
                <mxCell id="d_WjqqtK40UnCSDloDGY-21" value="Image" style="rounded=0;whiteSpace=wrap;html=1;labelBackgroundColor=none;labelBorderColor=none;strokeColor=default;strokeWidth=1;fontFamily=Verdana;fontSize=11;fontColor=#000000;fillColor=#FFFFFF;gradientColor=none;flipV=1;flipH=1;align=center;" vertex="1" parent="1">
                    <mxGeometry x="379" y="469" width="100" height="30" as="geometry"/>
                </mxCell>
                <mxCell id="d_WjqqtK40UnCSDloDGY-35" style="edgeStyle=none;html=1;exitX=1;exitY=0.5;exitDx=0;exitDy=0;entryX=0;entryY=0.5;entryDx=0;entryDy=0;fontSize=11;startArrow=classic;startFill=1;endArrow=none;endFill=0;" edge="1" parent="1" source="d_WjqqtK40UnCSDloDGY-22" target="d_WjqqtK40UnCSDloDGY-34">
                    <mxGeometry relative="1" as="geometry"/>
                </mxCell>
                <mxCell id="d_WjqqtK40UnCSDloDGY-22" value="Application" style="rounded=0;whiteSpace=wrap;html=1;labelBackgroundColor=none;labelBorderColor=none;strokeColor=default;strokeWidth=1;fontFamily=Verdana;fontSize=11;fontColor=#000000;fillColor=#FFFFFF;gradientColor=none;flipV=1;flipH=1;" vertex="1" parent="1">
                    <mxGeometry x="379" y="439" width="100" height="30" as="geometry"/>
                </mxCell>
                <mxCell id="d_WjqqtK40UnCSDloDGY-23" value="Metaprotocol" style="rounded=0;whiteSpace=wrap;html=1;labelBackgroundColor=none;labelBorderColor=none;strokeColor=default;strokeWidth=1;fontFamily=Verdana;fontSize=11;fontColor=#000000;fillColor=#FFFFFF;gradientColor=none;flipV=1;flipH=1;" vertex="1" parent="1">
                    <mxGeometry x="179" y="529" width="100" height="30" as="geometry"/>
                </mxCell>
                <mxCell id="d_WjqqtK40UnCSDloDGY-24" value="ID" style="rounded=0;whiteSpace=wrap;html=1;labelBackgroundColor=none;labelBorderColor=none;strokeColor=default;strokeWidth=1;fontFamily=Verdana;fontSize=11;fontColor=#000000;fillColor=#FFFFFF;gradientColor=none;flipV=1;flipH=1;" vertex="1" parent="1">
                    <mxGeometry x="80" y="529" width="99" height="30" as="geometry"/>
                </mxCell>
                <mxCell id="d_WjqqtK40UnCSDloDGY-26" value="metaprotocol&lt;br&gt;= bitseed" style="rounded=0;whiteSpace=wrap;html=1;labelBackgroundColor=none;labelBorderColor=none;strokeColor=default;strokeWidth=1;fontFamily=Verdana;fontSize=11;fontColor=#000000;fillColor=#FFFFFF;gradientColor=none;flipV=1;flipH=1;" vertex="1" parent="1">
                    <mxGeometry x="179" y="499" width="100" height="30" as="geometry"/>
                </mxCell>
                <mxCell id="d_WjqqtK40UnCSDloDGY-27" value="Tick" style="rounded=0;whiteSpace=wrap;html=1;labelBackgroundColor=none;labelBorderColor=none;strokeColor=default;strokeWidth=1;fontFamily=Verdana;fontSize=11;fontColor=#000000;fillColor=#FFFFFF;gradientColor=none;flipV=1;flipH=1;" vertex="1" parent="1">
                    <mxGeometry x="279" y="499" width="100" height="30" as="geometry"/>
                </mxCell>
                <mxCell id="d_WjqqtK40UnCSDloDGY-28" value="tick = seed" style="rounded=0;whiteSpace=wrap;html=1;labelBackgroundColor=none;labelBorderColor=none;strokeColor=default;strokeWidth=1;fontFamily=Verdana;fontSize=11;fontColor=#000000;fillColor=#FFFFFF;gradientColor=none;flipV=1;flipH=1;align=center;" vertex="1" parent="1">
                    <mxGeometry x="279" y="469" width="100" height="30" as="geometry"/>
                </mxCell>
                <mxCell id="d_WjqqtK40UnCSDloDGY-29" value="Content" style="rounded=0;whiteSpace=wrap;html=1;labelBackgroundColor=none;labelBorderColor=none;strokeColor=default;strokeWidth=1;fontFamily=Verdana;fontSize=11;fontColor=#000000;fillColor=#FFFFFF;gradientColor=none;flipV=1;flipH=1;" vertex="1" parent="1">
                    <mxGeometry x="379" y="529" width="100" height="30" as="geometry"/>
                </mxCell>
                <mxCell id="d_WjqqtK40UnCSDloDGY-38" style="edgeStyle=none;html=1;exitX=0;exitY=0.5;exitDx=0;exitDy=0;entryX=1;entryY=0.5;entryDx=0;entryDy=0;fontSize=11;" edge="1" parent="1" source="d_WjqqtK40UnCSDloDGY-31" target="d_WjqqtK40UnCSDloDGY-29">
                    <mxGeometry relative="1" as="geometry"/>
                </mxCell>
                <mxCell id="d_WjqqtK40UnCSDloDGY-31" value="Bitcoin Ordinals Inscription" style="rounded=0;whiteSpace=wrap;html=1;labelBackgroundColor=none;labelBorderColor=none;strokeColor=default;strokeWidth=1;fontFamily=Verdana;fontSize=11;fontColor=#000000;fillColor=#FFFFFF;gradientColor=none;flipV=1;flipH=1;" vertex="1" parent="1">
                    <mxGeometry x="559" y="529" width="241" height="30" as="geometry"/>
                </mxCell>
                <mxCell id="d_WjqqtK40UnCSDloDGY-37" style="edgeStyle=none;html=1;exitX=0;exitY=0.5;exitDx=0;exitDy=0;entryX=1;entryY=0.5;entryDx=0;entryDy=0;fontSize=11;" edge="1" parent="1" source="d_WjqqtK40UnCSDloDGY-32" target="d_WjqqtK40UnCSDloDGY-19">
                    <mxGeometry relative="1" as="geometry"/>
                </mxCell>
                <mxCell id="d_WjqqtK40UnCSDloDGY-32" value="Metaprotocol Bitseed Plugin on Rooch" style="rounded=0;whiteSpace=wrap;html=1;labelBackgroundColor=none;labelBorderColor=none;strokeColor=default;strokeWidth=1;fontFamily=Verdana;fontSize=11;fontColor=#000000;fillColor=#FFFFFF;gradientColor=none;flipV=1;flipH=1;" vertex="1" parent="1">
                    <mxGeometry x="559" y="499" width="241" height="30" as="geometry"/>
                </mxCell>
                <mxCell id="d_WjqqtK40UnCSDloDGY-33" value="Move SFT Object" style="rounded=0;whiteSpace=wrap;html=1;labelBackgroundColor=none;labelBorderColor=none;strokeColor=default;strokeWidth=1;fontFamily=Verdana;fontSize=11;fontColor=#000000;fillColor=#FFFFFF;gradientColor=none;flipV=1;flipH=1;" vertex="1" parent="1">
                    <mxGeometry x="559" y="469" width="241" height="30" as="geometry"/>
                </mxCell>
                <mxCell id="d_WjqqtK40UnCSDloDGY-34" value="Bitcoin&amp;nbsp;plant game&amp;nbsp;" style="rounded=0;whiteSpace=wrap;html=1;labelBackgroundColor=none;labelBorderColor=none;strokeColor=default;strokeWidth=1;fontFamily=Verdana;fontSize=11;fontColor=#000000;fillColor=#FFFFFF;gradientColor=none;flipV=1;flipH=1;" vertex="1" parent="1">
                    <mxGeometry x="559" y="439" width="241" height="30" as="geometry"/>
                </mxCell>
                <mxCell id="d_WjqqtK40UnCSDloDGY-41" value="ID" style="rounded=0;whiteSpace=wrap;html=1;labelBackgroundColor=none;labelBorderColor=none;strokeColor=default;strokeWidth=1;fontFamily=Verdana;fontSize=11;fontColor=#000000;fillColor=#FFFFFF;gradientColor=none;flipV=1;flipH=1;" vertex="1" parent="1">
                    <mxGeometry x="20" y="170" width="100" height="30" as="geometry"/>
                </mxCell>
                <mxCell id="d_WjqqtK40UnCSDloDGY-42" value="Tick" style="rounded=0;whiteSpace=wrap;html=1;labelBackgroundColor=none;labelBorderColor=none;strokeColor=default;strokeWidth=1;fontFamily=Verdana;fontSize=11;fontColor=#000000;fillColor=#FFFFFF;gradientColor=none;flipV=1;flipH=1;align=center;" vertex="1" parent="1">
                    <mxGeometry x="320" y="140" width="100" height="30" as="geometry"/>
                </mxCell>
                <mxCell id="d_WjqqtK40UnCSDloDGY-52" style="edgeStyle=none;html=1;exitX=1;exitY=0.5;exitDx=0;exitDy=0;entryX=0;entryY=0.5;entryDx=0;entryDy=0;fontSize=11;startArrow=classic;startFill=1;endArrow=none;endFill=0;" edge="1" parent="1" source="d_WjqqtK40UnCSDloDGY-43" target="d_WjqqtK40UnCSDloDGY-47">
                    <mxGeometry relative="1" as="geometry"/>
                </mxCell>
                <mxCell id="d_WjqqtK40UnCSDloDGY-43" value="OP(Deploy/Mint)" style="rounded=0;whiteSpace=wrap;html=1;labelBackgroundColor=none;labelBorderColor=none;strokeColor=default;strokeWidth=1;fontFamily=Verdana;fontSize=11;fontColor=#000000;fillColor=#FFFFFF;gradientColor=none;flipV=1;flipH=1;" vertex="1" parent="1">
                    <mxGeometry x="420" y="140" width="100" height="30" as="geometry"/>
                </mxCell>
                <mxCell id="d_WjqqtK40UnCSDloDGY-44" value="Protocol" style="rounded=0;whiteSpace=wrap;html=1;labelBackgroundColor=none;labelBorderColor=none;strokeColor=default;strokeWidth=1;fontFamily=Verdana;fontSize=11;fontColor=#000000;fillColor=#FFFFFF;gradientColor=none;flipV=1;flipH=1;align=center;" vertex="1" parent="1">
                    <mxGeometry x="220" y="140" width="100" height="30" as="geometry"/>
                </mxCell>
                <mxCell id="d_WjqqtK40UnCSDloDGY-46" value="Assert Container Layer" style="rounded=0;whiteSpace=wrap;html=1;labelBackgroundColor=none;labelBorderColor=none;strokeColor=default;strokeWidth=1;fontFamily=Verdana;fontSize=11;fontColor=#000000;fillColor=#FFFFFF;gradientColor=none;flipV=1;flipH=1;" vertex="1" parent="1">
                    <mxGeometry x="559" y="170" width="241" height="30" as="geometry"/>
                </mxCell>
                <mxCell id="d_WjqqtK40UnCSDloDGY-47" value="Assert Protocol Layer" style="rounded=0;whiteSpace=wrap;html=1;labelBackgroundColor=none;labelBorderColor=none;strokeColor=default;strokeWidth=1;fontFamily=Verdana;fontSize=11;fontColor=#000000;fillColor=#FFFFFF;gradientColor=none;flipV=1;flipH=1;" vertex="1" parent="1">
                    <mxGeometry x="559" y="140" width="241" height="30" as="geometry"/>
                </mxCell>
                <mxCell id="d_WjqqtK40UnCSDloDGY-48" value="Asset Layer" style="rounded=0;whiteSpace=wrap;html=1;labelBackgroundColor=none;labelBorderColor=none;strokeColor=default;strokeWidth=1;fontFamily=Verdana;fontSize=11;fontColor=#000000;fillColor=#FFFFFF;gradientColor=none;flipV=1;flipH=1;" vertex="1" parent="1">
                    <mxGeometry x="559" y="110" width="241" height="30" as="geometry"/>
                </mxCell>
                <mxCell id="d_WjqqtK40UnCSDloDGY-49" value="Applicatioin Layer" style="rounded=0;whiteSpace=wrap;html=1;labelBackgroundColor=none;labelBorderColor=none;strokeColor=default;strokeWidth=1;fontFamily=Verdana;fontSize=11;fontColor=#000000;fillColor=#FFFFFF;gradientColor=none;flipV=1;flipH=1;" vertex="1" parent="1">
                    <mxGeometry x="559" y="80" width="241" height="30" as="geometry"/>
                </mxCell>
                <mxCell id="d_WjqqtK40UnCSDloDGY-58" style="edgeStyle=none;html=1;exitX=1;exitY=0.5;exitDx=0;exitDy=0;entryX=0;entryY=0.5;entryDx=0;entryDy=0;fontSize=11;startArrow=classic;startFill=1;endArrow=none;endFill=0;" edge="1" parent="1" source="d_WjqqtK40UnCSDloDGY-55" target="d_WjqqtK40UnCSDloDGY-56">
                    <mxGeometry relative="1" as="geometry"/>
                </mxCell>
                <mxCell id="d_WjqqtK40UnCSDloDGY-55" value="Bitcoin Transaction &amp;amp; UTXO" style="rounded=0;whiteSpace=wrap;html=1;labelBackgroundColor=none;labelBorderColor=none;strokeColor=default;strokeWidth=1;fontFamily=Verdana;fontSize=11;fontColor=#000000;fillColor=#FFFFFF;gradientColor=none;flipV=1;flipH=1;" vertex="1" parent="1">
                    <mxGeometry x="20" y="200" width="500" height="30" as="geometry"/>
                </mxCell>
                <mxCell id="d_WjqqtK40UnCSDloDGY-56" value="Assert Repository&amp;nbsp;Layer" style="rounded=0;whiteSpace=wrap;html=1;labelBackgroundColor=none;labelBorderColor=none;strokeColor=default;strokeWidth=1;fontFamily=Verdana;fontSize=11;fontColor=#000000;fillColor=#FFFFFF;gradientColor=none;flipV=1;flipH=1;" vertex="1" parent="1">
                    <mxGeometry x="559" y="200" width="241" height="30" as="geometry"/>
                </mxCell>
            </root>
        </mxGraphModel>
    </diagram>
</mxfile>